# xmcd
#
# Track frame offsets: 
#        150
#        23590
#        47415
#        68097
#        83502
#        104810
#        124970
#        146372
#        163210
#        185045
#        207730
#        227577
#        248170
#
# Disc length: 3422 seconds
#
# Revision: 1
# Processed by: cddbd v1.5.2PL0 Copyright (c) Steve Scherf et al.
# Submitted via: ExactAudioCopy v1.0b3
#
DISCID=b50d5c0d
DTITLE=Máire Brennan - Whisper To The Wild Water
DYEAR=1999
DGENRE=Celtic
TTITLE0=Follow The Word
TTITLE1=Where I Stand
TTITLE2=Hard To Break The Seal
TTITLE3=To The Water
TTITLE4=Whisper To The Wild Water
TTITLE5=Peacemaker
TTITLE6=Ageless Messengers
TTITLE7=I Lathair De
TTITLE8=Life
TTITLE9=Rinne Tu
TTITLE10=Mary Of The Gaels
TTITLE11=Sign From The Hills
TTITLE12=Bi thusa mo shuile
EXTD=YEAR: 1999
EXTT0=
EXTT1=
EXTT2=
EXTT3=
EXTT4=
EXTT5=
EXTT6=
EXTT7=
EXTT8=
EXTT9=
EXTT10=
EXTT11=
EXTT12=
PLAYORDER=
